<svg class="hidden" xmlns="http://www.w3.org/2000/svg">
		<symbol viewBox="0 0 24 24" id="telegram">
			<path d="m12 0c-6.627 0-12 5.373-12 12s5.373 12 12 12 12-5.373 12-12c0-6.627-5.373-12-12-12zm5.894 8.221-1.97 9.28c-.145.658-.537.818-1.084.508l-3-2.21-1.446 1.394c-.14.18-.357.295-.6.295-.002 0-.003 0-.005 0l.213-3.054 5.56-5.022c.24-.213-.054-.334-.373-.121l-6.869 4.326-2.96-.924c-.64-.203-.658-.64.135-.954l11.566-4.458c.538-.196 1.006.128.832.941z"/>
		</symbol>

		<symbol viewBox="-0.5 0 24 24" id="amazon">
			<path d="m20.394 19.768c.068-.033.149-.052.234-.052.041 0 .08.004.118.013l-.004-.001q.147.04.147.234c-.017.175-.09.33-.201.449-.184.21-.376.4-.582.576l-.008.006c-.377.317-.795.617-1.235.885l-.045.025c-.531.338-1.151.669-1.796.955l-.092.036c-.713.309-1.556.577-2.428.761l-.089.016c-.915.209-1.965.328-3.043.328-.011 0-.021 0-.032 0h.002c-1.134-.002-2.231-.153-3.275-.436l.088.02c-1.07-.271-2.002-.621-2.881-1.062l.081.037c-.892-.454-1.648-.916-2.365-1.43l.055.037c-.663-.462-1.241-.924-1.788-1.42l.015.013c-.399-.367-.767-.749-1.11-1.154l-.015-.018c-.059-.061-.105-.135-.132-.217l-.001-.004c-.007-.019-.011-.042-.011-.065 0-.035.009-.068.025-.096v.001c.027-.04.063-.072.106-.093l.002-.001c.036-.018.079-.028.124-.028.011 0 .021.001.032.002h-.001c.059.004.112.026.155.06h-.001c1.103.71 2.419 1.45 3.777 2.117l.24.107c2.094.999 4.552 1.583 7.146 1.583 1.259 0 2.486-.138 3.666-.398l-.112.021c1.986-.441 3.734-1.064 5.376-1.87l-.14.062zm2.772-1.54c.059.153.093.331.093.516 0 .148-.022.291-.062.425l.003-.011c-.082.516-.215.977-.397 1.414l.015-.041c-.245.661-.635 1.219-1.134 1.656l-.005.004q-.228.187-.348.121t0-.32c.203-.44.406-.979.572-1.535l.024-.092q.314-1.025.087-1.319c-.053-.068-.123-.121-.204-.153l-.003-.001c-.106-.043-.229-.071-.358-.08h-.004q-.221-.02-.395-.034c-.07-.004-.152-.007-.234-.007s-.164.002-.246.007l.011-.001q-.294.014-.422.026l-.415.04-.302.026q-.08.014-.174.02t-.147.014l-.114.014c-.027.004-.06.006-.093.006h-.134l-.04-.006-.026-.02-.02-.04q-.08-.214.63-.536c.401-.191.866-.332 1.355-.397l.024-.003c.234-.033.504-.051.779-.051.235 0 .467.014.696.04l-.028-.003q.829.078 1.017.319zm-5.28-5.933c.004.31.07.604.186.871l-.006-.015c.12.297.264.553.436.787l-.007-.01q.248.335.502.616c.136.155.281.296.435.424l.006.005.174.147-3.04 3q-.536-.495-1.058-1.011t-.777-.783l-.254-.268c-.123-.13-.233-.275-.329-.43l-.007-.012c-.354.541-.788.996-1.291 1.363l-.015.01c-.486.363-1.053.653-1.665.84l-.039.01c-.555.169-1.197.28-1.86.308l-.016.001c-.065.003-.142.005-.219.005-.582 0-1.139-.105-1.654-.297l.033.011c-.603-.222-1.124-.519-1.585-.889l.011.009c-.482-.4-.861-.908-1.103-1.488l-.009-.025c-.263-.615-.416-1.331-.416-2.083 0-.033 0-.065.001-.098v.005c0-.019 0-.041 0-.064 0-.719.138-1.406.389-2.036l-.013.037c.234-.603.56-1.121.967-1.563l-.003.003c.412-.428.881-.797 1.396-1.096l.03-.016c.468-.283 1.01-.541 1.577-.743l.064-.02c.471-.167 1.055-.327 1.653-.448l.088-.015c.433-.097.978-.184 1.533-.242l.067-.006q.663-.06 1.333-.087v-1.698c.003-.047.005-.101.005-.156 0-.418-.107-.812-.295-1.154l.006.012c-.327-.439-.844-.72-1.428-.72-.068 0-.135.004-.201.011l.008-.001q-.08 0-.221.014c-.206.039-.388.094-.561.167l.018-.007c-.286.106-.534.24-.759.402l.009-.006c-.29.228-.538.492-.742.788l-.008.012c-.266.369-.484.795-.631 1.253l-.009.032-3.938-.362c.002-.573.11-1.121.305-1.625l-.011.031c.226-.582.528-1.083.903-1.522l-.006.007c.415-.491.891-.912 1.421-1.257l.025-.015c.583-.374 1.259-.675 1.978-.868l.051-.012c.744-.208 1.598-.328 2.48-.328h.075-.004c.03 0 .066-.001.101-.001.828 0 1.627.123 2.381.351l-.058-.015c.661.188 1.238.47 1.752.836l-.017-.012c.42.314.779.681 1.075 1.096l.01.015c.245.331.449.712.593 1.122l.009.03c.101.293.162.63.167.981v.003zm-9 .282c-.001.022-.001.048-.001.074 0 .715.371 1.343.931 1.703l.008.005c.34.245.766.392 1.226.392.227 0 .446-.036.651-.102l-.015.004c.763-.243 1.341-.861 1.523-1.632l.003-.015c.119-.387.188-.832.188-1.292 0-.021 0-.043 0-.064v.003-2.17c-.537.016-1.049.074-1.547.17l.06-.01c-.541.109-1.019.264-1.47.466l.044-.017c-.948.396-1.602 1.315-1.602 2.387 0 .034.001.068.002.101v-.005z"/>
		</symbol>

		<symbol  viewBox="-2 0 24 24" id="android">
			<path d="m7.11 5.12c.311 0 .562-.252.562-.562s-.252-.562-.562-.562c-.003 0-.006 0-.01 0-.15 0-.285.064-.379.165-.098.103-.159.243-.159.397s.06.294.159.397c.095.102.23.166.38.166h.011-.001zm6.087 0h.01c.15 0 .285-.064.379-.165.098-.103.159-.243.159-.397s-.06-.294-.159-.397c-.095-.102-.23-.166-.38-.166-.004 0-.007 0-.011 0h.001c-.311 0-.562.252-.562.562s.252.562.562.562zm-11.711 2.654c.811.004 1.468.66 1.471 1.471v6.202.028c0 .4-.163.763-.426 1.025-.257.267-.617.433-1.017.433-.01 0-.02 0-.031 0h.002c-.002 0-.005 0-.008 0-.816 0-1.478-.662-1.478-1.478 0-.003 0-.005 0-.008v-6.202c0-.006 0-.014 0-.021 0-.4.166-.761.433-1.019.26-.266.623-.431 1.025-.431h.029-.001zm15.288.274v9.606.029c0 .429-.177.818-.462 1.096-.276.285-.662.462-1.089.462-.008 0-.015 0-.023 0h.001-1.082v3.274c0 .82-.665 1.486-1.486 1.486s-1.486-.665-1.486-1.486v-3.274h-1.99v3.274.008c0 .816-.662 1.478-1.478 1.478-.003 0-.006 0-.008 0-.006 0-.014 0-.021 0-.4 0-.761-.166-1.019-.433-.267-.261-.433-.624-.433-1.026 0-.009 0-.019 0-.028v.001l-.014-3.274h-1.066c-.003 0-.007 0-.01 0-.87 0-1.576-.706-1.576-1.576 0-.004 0-.007 0-.011v.001-9.606zm-3.346-5.84c1.017.52 1.85 1.272 2.452 2.19l.015.024c.579.866.923 1.932.923 3.077v.032-.002h-13.342c0-.009 0-.02 0-.031 0-1.146.345-2.211.936-3.098l-.013.02c.619-.944 1.457-1.696 2.444-2.197l.036-.017-1.024-1.89c-.025-.032-.04-.072-.04-.116 0-.076.045-.142.11-.172h.001c.03-.019.067-.031.107-.031.08 0 .15.048.182.116l.001.001 1.04 1.904c.854-.383 1.85-.606 2.899-.606s2.045.223 2.945.624l-.046-.018 1.04-1.904c.032-.07.102-.117.182-.117.04 0 .076.012.108.031h-.001c.066.03.112.096.112.173 0 .044-.015.084-.04.116zm6.88 7.04v6.202.008c0 .816-.662 1.478-1.478 1.478-.003 0-.006 0-.008 0-.006 0-.014 0-.021 0-.4 0-.761-.166-1.019-.433-.267-.261-.433-.624-.433-1.026 0-.009 0-.019 0-.028v.001-6.202c0-.009 0-.019 0-.029 0-.399.166-.76.433-1.016.259-.263.619-.426 1.017-.426h.024-.001.028c.4 0 .763.163 1.025.426.267.257.433.617.433 1.017v.027-.001z"/>
		</symbol>

		<symbol viewBox="0 0 24 24" id="music">
			<path fill-rule="evenodd" clip-rule="evenodd" d="M20.9997 15.0241C21.0014 15.2321 20.9961 15.4612 20.979 15.703C20.913 16.6399 20.6569 17.9858 19.7103 18.9324C19.0746 19.5681 18.223 19.9579 17.3286 19.9968C16.4302 20.0358 15.5573 19.7157 14.9208 19.0792C14.2843 18.4427 13.9641 17.5697 14.0032 16.6714C14.0421 15.777 14.4319 14.9254 15.0676 14.2897C16.0142 13.3431 17.3601 13.0869 18.297 13.021C18.5481 13.0033 18.7856 12.9982 19 13.0005V9.18045L8.99999 10.8471V17L8.99971 17.0241C9.00135 17.2322 8.99605 17.4612 8.97903 17.703C8.91305 18.6399 8.65691 19.9858 7.71027 20.9324C7.07458 21.5681 6.22297 21.9579 5.32858 21.9968C4.43025 22.0358 3.5573 21.7157 2.9208 21.0792C2.28431 20.4427 1.96413 19.5697 2.00319 18.6714C2.04208 17.777 2.43187 16.9254 3.06755 16.2897C4.01419 15.3431 5.36012 15.0869 6.297 15.021C6.54813 15.0033 6.7856 14.9982 6.99999 15.0005V7.54137C6.99999 5.58601 8.41364 3.91725 10.3424 3.5958L17.5068 2.40173C19.3354 2.09696 21 3.50709 21 5.36091V15C21 15.0081 20.9999 15.0161 20.9997 15.0241ZM19 5.36091C19 4.74297 18.4451 4.27293 17.8356 4.37452L10.6712 5.56858C9.70682 5.72931 8.99999 6.56369 8.99999 7.54137V8.81953L19 7.15286V5.36091ZM6.43749 17.016C5.63783 17.0723 4.9048 17.2809 4.48177 17.7039C4.18336 18.0023 4.01746 18.3867 4.0013 18.7583C3.98532 19.1259 4.11526 19.4452 4.33502 19.665C4.55477 19.8847 4.87407 20.0147 5.24171 19.9987C5.61329 19.9825 5.99765 19.8166 6.29606 19.5182C6.71908 19.0952 6.92765 18.3622 6.98397 17.5625C6.99803 17.3629 7.00166 17.1725 6.99935 17.0006C6.82744 16.9983 6.63713 17.002 6.43749 17.016ZM16.4818 15.7039C16.9048 15.2809 17.6378 15.0723 18.4375 15.016C18.6371 15.002 18.8274 14.9983 18.9993 15.0006C19.0017 15.1725 18.998 15.3629 18.984 15.5625C18.9277 16.3622 18.7191 17.0952 18.2961 17.5182C17.9977 17.8166 17.6133 17.9825 17.2417 17.9987C16.8741 18.0147 16.5548 17.8847 16.335 17.665C16.1153 17.4452 15.9853 17.1259 16.0013 16.7583C16.0175 16.3867 16.1834 16.0023 16.4818 15.7039Z" />
		</symbol>

        <symbol viewBox="0 0 24 24" id="alert">
          <path fill-rule="evenodd" clip-rule="evenodd" d="M11 13C11 13.5523 11.4477 14 12 14C12.5523 14 13 13.5523 13 13V10C13 9.44772 12.5523 9 12 9C11.4477 9 11 9.44772 11 10V13ZM13 15.9888C13 15.4365 12.5523 14.9888 12 14.9888C11.4477 14.9888 11 15.4365 11 15.9888V16C11 16.5523 11.4477 17 12 17C12.5523 17 13 16.5523 13 16V15.9888ZM9.37735 4.66136C10.5204 2.60393 13.4793 2.60393 14.6223 4.66136L21.2233 16.5431C22.3341 18.5427 20.8882 21 18.6008 21H5.39885C3.11139 21 1.66549 18.5427 2.77637 16.5431L9.37735 4.66136Z" />
        </symbol>

		<symbol viewBox="0 0 24 24"  id="arrow-down">
        <path d="M12 20L12 4" stroke="#323232" stroke-width="2" stroke-linecap="round" stroke-linejoin="round"/>
        <path d="M6 14L11.9375 19.9375V19.9375C11.972 19.972 12.028 19.972 12.0625 19.9375V19.9375L18 14" stroke="#323232" stroke-width="2" stroke-linecap="round" stroke-linejoin="round"/>
        </symbol>

		<symbol viewBox="0 0 24 24" id="arrow-left">
        <path d="M4 12L20 12" stroke="#323232" stroke-width="2" stroke-linecap="round" stroke-linejoin="round"/>
        <path d="M10 6L4.0625 11.9375V11.9375C4.02798 11.972 4.02798 12.028 4.0625 12.0625V12.0625L10 18" stroke="#323232" stroke-width="2" stroke-linecap="round" stroke-linejoin="round"/>
       </symbol>

	   <symbol viewBox="0 0 192 192" id="gallery">
	   <path stroke="#323232" stroke-miterlimit="10" stroke-width="12" d="M55.6 158c16.3-21.6 32.6-43.1 48.9-64.7.4-.6 4.4-5.6 11.2-5.5 6.3.1 10 4.5 10.5 5.2 11.2 13.5 22.3 27 33.5 40.5m-58.9-35.3c-5.1-8.1-10.2-16.4-15.3-24.5-.3-.5-4.3-6.5-11.7-6.4-7.2.1-11.1 5.8-11.4 6.3-10.9 18.3-21.9 36.5-32.8 54.9M170 96c0 40.9-33.1 74-74 74s-74-33.1-74-74 33.1-74 74-74 74 33.1 74 74Zm-45.6-47.1c7.1 0 13 5.8 13 13s-5.8 12.9-13 12.9c-7.1 0-13-5.8-13-12.9 0-7.1 5.9-13 13-13Z"/>
	   </symbol>

	   <symbol viewBox="0 0 24 24" id="home">
       <path opacity="0.1" d="M17.7218 8.08382L14.7218 5.29811C13.4309 4.09937 12.7854 3.5 12 3.5C11.2146 3.5 10.5691 4.09937 9.2782 5.29811L6.2782 8.08382C5.64836 8.66867 5.33345 8.96109 5.16672 9.34342C5 9.72575 5 10.1555 5 11.015V16.9999C5 18.8856 5 19.8284 5.58579 20.4142C6.17157 20.9999 7.11438 20.9999 9 20.9999H9.75V16.9999C9.75 15.7573 10.7574 14.7499 12 14.7499C13.2426 14.7499 14.25 15.7573 14.25 16.9999V20.9999H15C16.8856 20.9999 17.8284 20.9999 18.4142 20.4142C19 19.8284 19 18.8856 19 16.9999L19 11.015C19 10.1555 19 9.72575 18.8333 9.34342C18.6666 8.96109 18.3516 8.66866 17.7218 8.08382Z" fill="#323232"/>
       <path d="M19 9L19 17C19 18.8856 19 19.8284 18.4142 20.4142C17.8284 21 16.8856 21 15 21L14 21L10 21L9 21C7.11438 21 6.17157 21 5.58579 20.4142C5 19.8284 5 18.8856 5 17L5 9" stroke="#323232" stroke-width="2" stroke-linejoin="round"/>
       <path d="M3 11L7.5 7L10.6713 4.18109C11.429 3.50752 12.571 3.50752 13.3287 4.18109L16.5 7L21 11" stroke="#323232" stroke-width="2" stroke-linecap="round" stroke-linejoin="round"/>
       <path d="M10 21V17C10 15.8954 10.8954 15 12 15V15C13.1046 15 14 15.8954 14 17V21" stroke="#323232" stroke-width="2" stroke-linecap="round" stroke-linejoin="round"/>
       </symbol>



	</svg>